<?xml version="1.0" encoding="iso-8859-1"?>
<!-- Generator: Adobe Illustrator 16.0.0, SVG Export Plug-In . SVG Version: 6.00 Build 0)  -->
<!DOCTYPE svg PUBLIC "-//W3C//DTD SVG 1.1//EN" "http://www.w3.org/Graphics/SVG/1.1/DTD/svg11.dtd">
<svg version="1.1" id="Capa_1" xmlns="http://www.w3.org/2000/svg" xmlns:xlink="http://www.w3.org/1999/xlink" x="0px" y="0px"
	 width="566.096px" height="566.096px" viewBox="0 0 566.096 566.096" style="enable-background:new 0 0 566.096 566.096;"
	 xml:space="preserve">
<g>
	<path d="M496.075,313.634H65.409c-19.596,0-22.849,12.509-23.13,19.804c9.707,130.108,113.688,232.658,240.773,232.658
		c125.116,0,228.03-99.288,240.486-226.481c0.035-0.199,0.035-0.391,0.053-0.599c0.139-1.596,0.121-3.227,0.226-4.849
		C523.07,315.89,502.91,313.808,496.075,313.634L496.075,313.634z"/>
	<path d="M204.166,148.351c3.722,0.941,7.586,1.575,11.563,1.804v0.248l2.585,0.008c0.338,0,0.642,0.109,0.972,0.109
		c0.338,0,0.668-0.091,1.006-0.109l7.304,0.035v0.057l128.438-0.018c17.263,0,24.688,4.628,27.793,7.725
		c1.874,3.891,3.002,8.21,3.002,12.812c0,10.188-5.136,19.166-12.925,24.531c-0.156,0.143-0.382,0.221-0.521,0.347
		c-1.024,0.668-2.117,1.201-3.228,1.739c-6.957,2.793-17.782,2.763-17.782,2.763h-56.71l-83.118-0.009
		c0,0-10.006-0.139-19.652,2.819c-0.251,0.087-0.499,0.169-0.772,0.265c-1.006,0.312-2,0.676-3.006,1.076
		c-5.113,2.129-10.335,5.322-14.894,10.179c-0.117,0.113-0.221,0.204-0.338,0.308c-0.144,0.143-0.273,0.217-0.391,0.355
		c-0.143,0.161-0.169,0.234-0.277,0.395c-9.256,9.03-15.046,21.539-15.046,35.509c0,3.262,0.429,6.397,1.11,9.434
		c0.78,2.811,3.526,9.269,12.899,9.303h4.307c10.457-0.234,13.12-19.435,13.12-19.435l0.083,0.009
		c0.611-2.247,1.527-4.372,2.776-6.281c0.056-0.082,0.083-0.151,0.169-0.251c0.143-0.187,0.304-0.342,0.447-0.542
		c2.559-3.019,9.763-8.544,28.574-8.544L350.118,235v-0.052l7.287-0.026c0.364,0.009,0.659,0.095,0.988,0.095
		c0.33,0,0.677-0.095,1.007-0.095l2.55-0.018v-0.251c3.973-0.229,7.877-0.858,11.589-1.8c27.464-5.508,48.179-29.732,48.179-58.813
		c0-8.974-2.1-17.392-5.639-24.987c-2.62-6.714-6.506-12.782-11.589-17.748c-0.122-0.16-0.156-0.229-0.277-0.39
		c-0.122-0.143-0.261-0.221-0.399-0.364c-0.104-0.1-0.226-0.187-0.33-0.304c-1.978-2.095-4.094-3.756-6.263-5.283
		c-0.659-0.49-1.318-0.95-2.013-1.388c-1.596-0.984-3.209-1.791-4.788-2.528c-15.51-6.753-36.45-5.127-36.45-5.127H252.231h-4.754
		h-22.128c0,0-10.843,0.026-17.817-2.771c-1.084-0.542-2.199-1.067-3.196-1.73c-0.169-0.125-0.395-0.208-0.534-0.347
		c-7.807-5.365-12.925-14.339-12.925-24.536c0-16.46,13.341-29.792,29.797-29.792h61.372h7.113h5.552
		c25.603,0,30.218-18.655,31.016-27.199V9.212c0-7.824-5.69-9.069-6.558-9.212c-8.327,0.251-21.673,2.337-21.673,13.441
		c0,2.628,0,4.68,0,6.519c-0.27,3.348-2.299,9.577-13.55,9.577h-67.522c-0.104,0.008-0.243,0.008-0.365,0.008
		c-0.026,0-0.052-0.008-0.078-0.008c-0.139,0-0.252,0.043-0.391,0.043c-4.203,0.217-8.202,0.59-11.593,1.167
		c-0.057,0.017-0.117,0.017-0.169,0.026c-2.39,0.417-4.441,0.924-5.977,1.562c-0.525,0.212-0.863,0.447-1.167,0.668
		c-23.625,8.054-40.718,30.191-40.718,56.527C155.966,118.623,176.672,142.842,204.166,148.351L204.166,148.351z"/>
</g>
<g>
</g>
<g>
</g>
<g>
</g>
<g>
</g>
<g>
</g>
<g>
</g>
<g>
</g>
<g>
</g>
<g>
</g>
<g>
</g>
<g>
</g>
<g>
</g>
<g>
</g>
<g>
</g>
<g>
</g>
</svg>
